<svg width="233" height="46" viewBox="0 0 233 46" fill="none" xmlns="http://www.w3.org/2000/svg">
<rect x="1.75" y="1.75" width="42.5" height="42.5" rx="21.25" fill="#EEEDED"/>
<rect x="1.75" y="1.75" width="42.5" height="42.5" rx="21.25" stroke="#004353" stroke-width="2.5"/>
<path d="M11.0876 30.8077C10.5688 30.5761 10.0413 30.3651 9.50785 30.1658C7.95157 29.5826 6.33374 29.1342 4.68367 28.8235C4.53713 28.7971 4.38766 28.7707 4.24111 28.7473C3.83666 28.677 3.42927 28.6154 3.01895 28.5626C3.40289 29.6236 3.86304 30.6436 4.39059 31.6195C6.70303 31.8804 8.95684 32.3874 11.0846 33.1494V30.8077H11.0876Z" fill="#015F73"/>
<path d="M41.4277 28.885C39.7395 29.2192 38.1334 29.691 36.6035 30.2948C36.0613 30.5087 35.5308 30.7373 35.0092 30.9835V33.3165C37.1076 32.5076 39.3146 31.9536 41.5919 31.6898C42.1253 30.7109 42.5913 29.6851 42.9811 28.6212C42.6206 28.674 42.2601 28.7297 41.9054 28.7942C41.7442 28.8235 41.586 28.8557 41.4248 28.885H41.4277Z" fill="#015F73"/>
<path d="M17.8168 36.7925C17.9956 36.9302 18.1744 37.068 18.3502 37.2145C18.6667 37.4636 19.3232 38.0439 19.3232 38.0439L19.7924 17.235L17.8168 15.6415V16.3039H17.8314L17.8168 36.7954V36.7925Z" fill="#F79331"/>
<path d="M11.0876 33.1496C11.2957 33.2229 11.5037 33.2991 11.7089 33.3782L11.7236 16.3041H12.5413L11.1022 15.6417L11.0876 33.1496Z" fill="#F79331"/>
<path d="M34.4024 33.5568C34.6047 33.4748 34.8069 33.3927 35.0092 33.3165L35.0238 15.6415L33.5847 16.3039H34.4171L34.4024 33.5597V33.5568Z" fill="#F79331"/>
<path d="M28.2946 37.0211L28.3092 15.6386L26.3228 17.2166L26.8145 38.1934C27.2951 37.786 27.7875 37.3962 28.2946 37.0181V37.0211Z" fill="#F79331"/>
<path d="M11.7089 33.3751C13.91 34.225 15.9674 35.3622 17.8168 36.7925L17.8314 16.301H11.7236L11.7089 33.3751Z" fill="#FDE3C1"/>
<path d="M34.4024 33.5568L34.4171 16.301H28.3092L28.2946 37.0181C30.1732 35.623 32.2248 34.4507 34.4024 33.5539V33.5568Z" fill="#FDE3C1"/>
<path d="M19.2969 39.4537L19.3233 38.041C18.9921 37.7421 18.6667 37.4607 18.3502 37.2116C18.1744 37.068 17.9956 36.9302 17.8168 36.7895C15.9674 35.3593 13.91 34.2221 11.7089 33.3722C11.5038 33.293 11.2957 33.2198 11.0876 33.1436C8.95978 32.3815 6.70596 31.8745 4.39352 31.6137C5.02365 32.7831 5.7505 33.888 6.56528 34.9138C10.9674 35.201 14.8508 36.4877 18.3971 38.847C18.6873 39.0346 18.9921 39.2397 19.2969 39.4537Z" fill="#009496"/>
<path d="M34.4024 33.5568C32.2248 34.4537 30.1762 35.626 28.2946 37.0211C27.7875 37.3962 27.2952 37.7889 26.8145 38.1963L26.8379 39.4156C30.4605 36.9478 34.8245 35.4413 39.3468 35.0574C40.1909 34.014 40.9412 32.8856 41.5918 31.6928C39.3146 31.9566 37.1076 32.5105 35.0091 33.3194C34.8069 33.3985 34.6047 33.4777 34.4024 33.5597V33.5568Z" fill="#009496"/>
<path d="M23.063 6.58151L19.9218 8.86356L23.063 7.58386V6.58151Z" fill="#009496"/>
<path d="M26.1874 8.86817L23.063 6.58151V7.58386L26.1874 8.86817Z" fill="#92D1BC"/>
<path d="M23.063 42.6248C24.1943 41.4232 25.4634 40.3505 26.8409 39.4126L26.8174 38.1934L26.1874 8.86817L23.066 7.58093V42.6219L23.063 42.6248Z" fill="#D3E8E1"/>
<path d="M19.2969 39.4537C20.7242 40.4472 22.2424 41.6723 23.063 42.6248L23.063 7.58386L19.9218 8.86356L19.3262 38.041L19.2998 39.4537L19.2969 39.4537Z" fill="#004353"/>
<path d="M23.063 42.6248C22.2453 41.6723 20.7242 40.4472 19.2969 39.4537C18.9891 39.2397 18.6873 39.0346 18.3971 38.847C14.8508 36.4906 10.9674 35.204 6.56528 34.9138C10.0383 39.2866 15.0735 42.2526 20.774 42.874C20.815 42.8798 20.859 42.8828 20.9 42.8857C21.2107 42.9179 21.5272 42.9414 21.8408 42.9619C21.9141 42.9648 21.9845 42.9678 22.0577 42.9707C22.3537 42.9854 22.6498 42.9941 22.9516 42.9941C22.978 42.9941 23.0044 42.9941 23.0308 42.9941C29.5753 42.9883 35.4282 39.9021 39.3468 35.0515C34.8245 35.4355 30.4634 36.9449 26.8379 39.4097C25.4634 40.3447 24.1914 41.4173 23.0601 42.6219L23.063 42.6248Z" fill="#92D1BC"/>
<path d="M9.50785 30.1658C10.0413 30.3651 10.5688 30.5761 11.0876 30.8077L11.0876 23.0741L9.50783 21.8343L9.50785 30.1658Z" fill="url(#paint0_linear_48_3644)"/>
<path d="M36.6035 30.2948L36.6035 21.8197L35.0238 23.0623L35.0091 23.0741V30.9865C35.5308 30.7403 36.0613 30.5117 36.6035 30.2977L36.6035 30.2948Z" fill="url(#paint1_linear_48_3644)"/>
<path d="M4.68366 28.8206C6.33373 29.1312 7.95156 29.5796 9.50784 30.1629V22.2065H4.68366V28.8206Z" fill="#F8C499"/>
<path d="M36.6035 30.2948C38.1334 29.691 39.7395 29.2192 41.4277 28.885L41.4277 22.3707H36.6035L36.6035 30.2948Z" fill="#F8C499"/>
<path d="M41.4277 28.885C41.586 28.8528 41.7471 28.8235 41.9083 28.7942V21.8343L40.78 22.356L40.7507 22.3707H41.4306V28.8851L41.4277 28.885Z" fill="url(#paint2_linear_48_3644)"/>
<path d="M4.68366 22.2065L4.98261 22.2065L4.203 21.846V28.7326C4.203 28.7326 4.21765 28.7356 4.2411 28.7414C4.38764 28.7678 4.53712 28.7913 4.68366 28.8176V22.2036L4.68366 22.2065Z" fill="url(#paint3_linear_48_3644)"/>
<path d="M52 27.56C52 24.4 52.9 21.9 54.7 20.06C56.54 18.22 59.02 17.3 62.14 17.3C65.26 17.3 67.74 18.24 69.58 20.12C71.42 21.96 72.34 24.44 72.34 27.56C72.34 30.68 71.42 33.16 69.58 35C67.74 36.84 65.26 37.76 62.14 37.76C59.02 37.76 56.54 36.84 54.7 35C52.9 33.16 52 30.68 52 27.56ZM66.28 27.68C66.28 25 65.9 22.82 65.14 21.14C64.38 19.42 63.42 18.56 62.26 18.56C60.98 18.56 59.94 19.4 59.14 21.08C58.34 22.72 57.94 24.88 57.94 27.56C57.94 30.28 58.3 32.44 59.02 34.04C59.78 35.64 60.78 36.44 62.02 36.44C63.26 36.44 64.28 35.64 65.08 34.04C65.88 32.4 66.28 30.28 66.28 27.68Z" fill="#004353"/>
<path d="M86.2459 17.3C87.8459 17.3 89.2859 17.72 90.5659 18.56C91.8859 19.36 92.9059 20.48 93.6259 21.92C94.3859 23.36 94.7659 24.98 94.7659 26.78C94.7659 28.86 94.2659 30.74 93.2659 32.42C92.3059 34.06 90.9659 35.36 89.2459 36.32C87.5259 37.28 85.6059 37.76 83.4859 37.76C82.0459 37.76 80.6059 37.54 79.1659 37.1C77.7259 36.66 76.5459 36.06 75.6259 35.3V11.6C75.6259 11.28 75.5659 11.06 75.4459 10.94C75.3259 10.82 75.1259 10.76 74.8459 10.76H72.9859L72.8059 10.16C73.5659 9.44001 74.5459 8.88001 75.7459 8.48001C76.9859 8.04001 78.2059 7.82001 79.4059 7.82001C79.9259 7.82001 80.3259 7.94001 80.6059 8.18001C80.9259 8.38001 81.0859 8.68001 81.0859 9.08001V19.16C81.6859 18.56 82.4259 18.1 83.3059 17.78C84.2259 17.46 85.2059 17.3 86.2459 17.3ZM83.7859 36.38C87.1059 36.38 88.7659 33.52 88.7659 27.8C88.7659 24.96 88.3459 22.8 87.5059 21.32C86.7059 19.8 85.5059 19.04 83.9059 19.04C82.9059 19.04 81.9659 19.34 81.0859 19.94V35.78C81.9659 36.18 82.8659 36.38 83.7859 36.38Z" fill="#004353"/>
<path d="M107.818 35.78C108.978 35.78 109.998 35.58 110.878 35.18C111.758 34.74 112.618 34.02 113.458 33.02L114.178 33.56C113.258 34.88 112.078 35.92 110.638 36.68C109.238 37.4 107.698 37.76 106.018 37.76C104.178 37.76 102.518 37.32 101.038 36.44C99.5978 35.56 98.4578 34.36 97.6178 32.84C96.7778 31.28 96.3578 29.52 96.3578 27.56C96.3578 24.44 97.2978 21.96 99.1778 20.12C101.098 18.24 103.638 17.3 106.798 17.3C109.038 17.3 110.858 17.84 112.258 18.92C113.698 19.96 114.418 21.32 114.418 23C114.418 24.92 113.598 26.46 111.958 27.62C110.358 28.74 108.158 29.3 105.358 29.3C104.238 29.3 103.218 29.22 102.298 29.06C102.498 31.14 103.098 32.78 104.098 33.98C105.098 35.18 106.338 35.78 107.818 35.78ZM106.138 18.74C104.898 18.74 103.918 19.5 103.198 21.02C102.518 22.5 102.178 24.58 102.178 27.26V28.22C102.618 28.22 103.158 28.18 103.798 28.1C105.478 27.9 106.758 27.36 107.638 26.48C108.558 25.56 109.018 24.36 109.018 22.88C109.018 21.68 108.738 20.7 108.178 19.94C107.658 19.14 106.978 18.74 106.138 18.74Z" fill="#004353"/>
<path d="M140.981 22.34C140.981 25.22 138.701 26.78 134.141 27.02C134.701 27.54 135.141 28.16 135.461 28.88C135.821 29.56 136.001 30.28 136.001 31.04C136.001 32.12 135.661 33.18 134.981 34.22C134.341 35.26 133.281 36.12 131.801 36.8C130.361 37.44 128.521 37.76 126.281 37.76C122.961 37.76 120.321 37.06 118.361 35.66C116.401 34.26 115.421 32.28 115.421 29.72C115.421 27.92 116.041 26.36 117.281 25.04C118.561 23.72 120.381 22.76 122.741 22.16C120.941 21.72 119.521 20.96 118.481 19.88C117.481 18.8 116.981 17.4 116.981 15.68C116.981 14.48 117.381 13.34 118.181 12.26C118.981 11.18 120.161 10.32 121.721 9.68001C123.281 9.00001 125.141 8.66001 127.301 8.66001C129.701 8.66001 131.541 9.20001 132.821 10.28C134.141 11.32 134.801 12.56 134.801 14C134.801 15.56 134.161 16.74 132.881 17.54C131.601 18.3 129.841 18.7 127.601 18.74C129.001 17.66 129.701 16.12 129.701 14.12C129.701 12.96 129.421 11.98 128.861 11.18C128.301 10.34 127.601 9.92001 126.761 9.92001C125.601 9.92001 124.681 10.48 124.001 11.6C123.361 12.68 123.041 13.96 123.041 15.44C123.041 17.36 123.501 18.82 124.421 19.82C125.381 20.82 126.621 21.32 128.141 21.32V22.22C125.901 22.78 124.261 23.74 123.221 25.1C122.181 26.46 121.661 28.02 121.661 29.78C121.661 31.58 122.121 33.16 123.041 34.52C124.001 35.84 125.321 36.5 127.001 36.5C128.561 36.5 129.861 35.96 130.901 34.88C131.981 33.76 132.521 32.24 132.521 30.32C132.521 28.96 132.241 27.9 131.681 27.14C129.481 27.14 127.921 27.36 127.001 27.8C126.081 28.24 125.421 28.82 125.021 29.54L124.601 29.36C124.601 27.68 124.881 26.5 125.441 25.82C126.001 25.14 126.881 24.8 128.081 24.8C128.481 24.8 129.121 24.84 130.001 24.92C130.761 25.04 131.641 25.1 132.641 25.1C135.681 25.1 137.201 24 137.201 21.8C137.201 21.2 137.001 20.52 136.601 19.76C136.201 18.96 135.781 18.38 135.341 18.02C136.901 18.06 138.221 18.46 139.301 19.22C140.421 19.94 140.981 20.98 140.981 22.34Z" fill="#009496"/>
<path d="M148.924 33.8C148.924 35 149.304 35.6 150.064 35.6C150.824 35.6 151.564 35.3 152.284 34.7L152.764 35.3C151.364 36.94 149.624 37.76 147.544 37.76C146.144 37.76 145.124 37.44 144.484 36.8C143.844 36.12 143.524 35.06 143.524 33.62V11.6C143.524 11.04 143.264 10.76 142.744 10.76H140.824L140.644 10.16C141.404 9.44001 142.384 8.88001 143.584 8.48001C144.824 8.04001 146.044 7.82001 147.244 7.82001C147.764 7.82001 148.164 7.94001 148.444 8.18001C148.764 8.38001 148.924 8.68001 148.924 9.08001V33.8Z" fill="#F79331"/>
<path d="M161.049 33.8C161.049 35 161.429 35.6 162.189 35.6C162.949 35.6 163.689 35.3 164.409 34.7L164.889 35.3C163.409 36.94 161.669 37.76 159.669 37.76C158.229 37.76 157.189 37.4 156.549 36.68C155.909 35.92 155.589 34.7 155.589 33.02V21.14C155.589 20.58 155.329 20.3 154.809 20.3H152.949L152.769 19.64C153.569 18.96 154.569 18.4 155.769 17.96C156.969 17.52 158.169 17.3 159.369 17.3C159.849 17.3 160.249 17.42 160.569 17.66C160.889 17.9 161.049 18.22 161.049 18.62V33.8ZM154.989 11.54C154.989 10.82 155.389 10.02 156.189 9.14001C156.989 8.26001 157.729 7.82001 158.409 7.82001C159.129 7.82001 159.889 8.26001 160.689 9.14001C161.529 10.02 161.949 10.82 161.949 11.54C161.949 12.3 161.529 13.12 160.689 14C159.889 14.84 159.129 15.26 158.409 15.26C157.729 15.26 156.989 14.84 156.189 14C155.389 13.12 154.989 12.3 154.989 11.54Z" fill="#F79331"/>
<path d="M177.424 35.42C178.304 35.42 178.964 35.26 179.404 34.94C179.844 34.58 180.164 34 180.364 33.2L180.844 30.98L182.044 31.4V37.7L181.564 38.18C181.004 37.82 180.384 37.56 179.704 37.4C179.064 37.28 178.144 37.22 176.944 37.22H165.604L165.184 36.02L175.804 19.52H170.284C169.444 19.52 168.784 19.7 168.304 20.06C167.824 20.42 167.504 20.98 167.344 21.74L166.924 23.96L165.664 23.54V17.24L166.144 16.76C166.704 17.12 167.304 17.38 167.944 17.54C168.624 17.66 169.584 17.72 170.824 17.72H181.864C182.384 18.2 182.644 18.76 182.644 19.4L181.564 20L171.664 35.42H177.424Z" fill="#F79331"/>
<path d="M184.28 34.34C184.28 33.66 184.66 32.92 185.42 32.12C186.18 31.28 186.88 30.86 187.52 30.86C188.16 30.86 188.86 31.28 189.62 32.12C190.42 32.92 190.82 33.66 190.82 34.34C190.82 35.02 190.42 35.76 189.62 36.56C188.86 37.36 188.16 37.76 187.52 37.76C186.88 37.76 186.18 37.36 185.42 36.56C184.66 35.76 184.28 35.02 184.28 34.34Z" fill="#009496"/>
<path d="M210.698 22.58C210.698 23.9 210.298 24.94 209.498 25.7C208.698 26.46 207.718 26.84 206.558 26.84C205.638 26.84 204.798 26.6 204.038 26.12C204.918 25.32 205.358 24.2 205.358 22.76C205.358 21.6 205.118 20.66 204.638 19.94C204.158 19.18 203.458 18.8 202.538 18.8C201.498 18.8 200.638 19.62 199.958 21.26C199.318 22.86 198.998 24.96 198.998 27.56C198.998 30.04 199.458 32.04 200.378 33.56C201.338 35.04 202.678 35.78 204.398 35.78C205.598 35.78 206.618 35.56 207.458 35.12C208.338 34.68 209.158 34.04 209.918 33.2L210.638 33.68C209.798 34.88 208.698 35.86 207.338 36.62C205.978 37.38 204.398 37.76 202.598 37.76C199.798 37.76 197.498 36.82 195.698 34.94C193.898 33.06 192.998 30.64 192.998 27.68C192.998 24.52 193.938 22 195.818 20.12C197.698 18.24 200.198 17.3 203.318 17.3C205.518 17.3 207.298 17.8 208.658 18.8C210.018 19.76 210.698 21.02 210.698 22.58Z" fill="#009496"/>
<path d="M212.554 27.56C212.554 24.4 213.454 21.9 215.254 20.06C217.094 18.22 219.574 17.3 222.694 17.3C225.814 17.3 228.294 18.24 230.134 20.12C231.974 21.96 232.894 24.44 232.894 27.56C232.894 30.68 231.974 33.16 230.134 35C228.294 36.84 225.814 37.76 222.694 37.76C219.574 37.76 217.094 36.84 215.254 35C213.454 33.16 212.554 30.68 212.554 27.56ZM226.834 27.68C226.834 25 226.454 22.82 225.694 21.14C224.934 19.42 223.974 18.56 222.814 18.56C221.534 18.56 220.494 19.4 219.694 21.08C218.894 22.72 218.494 24.88 218.494 27.56C218.494 30.28 218.854 32.44 219.574 34.04C220.334 35.64 221.334 36.44 222.574 36.44C223.814 36.44 224.834 35.64 225.634 34.04C226.434 32.4 226.834 30.28 226.834 27.68Z" fill="#009496"/>
<defs>
<linearGradient id="paint0_linear_48_3644" x1="23.0371" y1="61.9324" x2="23.0371" y2="2.33223" gradientUnits="userSpaceOnUse">
<stop offset="0.2" stop-color="#B74830"/>
<stop offset="0.7" stop-color="#DA714C"/>
</linearGradient>
<linearGradient id="paint1_linear_48_3644" x1="23" y1="61.1412" x2="23" y2="2.43903" gradientUnits="userSpaceOnUse">
<stop offset="0.2" stop-color="#B74830"/>
<stop offset="0.7" stop-color="#DA714C"/>
</linearGradient>
<linearGradient id="paint2_linear_48_3644" x1="22.9494" y1="71.9335" x2="22.9494" y2="1.56533" gradientUnits="userSpaceOnUse">
<stop offset="0.2" stop-color="#B74830"/>
<stop offset="0.7" stop-color="#DA714C"/>
</linearGradient>
<linearGradient id="paint3_linear_48_3644" x1="4.59574" y1="39.7057" x2="4.59574" y2="13.4307" gradientUnits="userSpaceOnUse">
<stop offset="0.2" stop-color="#B74830"/>
<stop offset="0.7" stop-color="#DA714C"/>
</linearGradient>
</defs>
</svg>
