<svg width="223" height="44" viewBox="0 0 223 44" fill="none" xmlns="http://www.w3.org/2000/svg">
<g clip-path="url(#clip0_130_207)">
<rect x="3" y="2.86072" width="38.2785" height="38.2785" rx="19.1393" fill="#EEEDED"/>
<path d="M10.7397 29.4717C10.2432 29.2501 9.7384 29.0482 9.22794 28.8575C7.73864 28.2993 6.19044 27.8702 4.61139 27.5729C4.47115 27.5477 4.32811 27.5224 4.18788 27.5C3.80083 27.4327 3.41097 27.3738 3.01831 27.3233C3.38573 28.3386 3.82607 29.3146 4.33092 30.2486C6.54383 30.4982 8.70066 30.9834 10.7369 31.7127V29.4717H10.7397Z" fill="#015F73"/>
<path d="M39.7741 27.6318C38.1586 27.9515 36.6216 28.4031 35.1575 28.9809C34.6386 29.1856 34.131 29.4044 33.6318 29.64V31.8725C35.6399 31.0984 37.7519 30.5683 39.9312 30.3159C40.4416 29.3791 40.8876 28.3975 41.2606 27.3794C40.9156 27.4298 40.5706 27.4832 40.2312 27.5449C40.077 27.5729 39.9255 27.6038 39.7713 27.6318H39.7741Z" fill="#015F73"/>
<path d="M17.1793 35.1989C17.3504 35.3307 17.5215 35.4626 17.6898 35.6028C17.9927 35.8412 18.6209 36.3965 18.6209 36.3965L19.0699 16.4832L17.1793 14.9583V15.5921H17.1933L17.1793 35.2017V35.1989Z" fill="#F79331"/>
<path d="M10.7397 31.7129C10.9388 31.783 11.1379 31.8559 11.3343 31.9316L11.3483 15.5923H12.1308L10.7537 14.9584L10.7397 31.7129Z" fill="#F79331"/>
<path d="M33.0512 32.1025C33.2447 32.024 33.4382 31.9454 33.6318 31.8725L33.6458 14.9583L32.2686 15.5921H33.0652L33.0512 32.1053V32.1025Z" fill="#F79331"/>
<path d="M27.2061 35.4177L27.2202 14.9554L25.3193 16.4655L25.7898 36.5395C26.2497 36.1497 26.7209 35.7767 27.2061 35.4149V35.4177Z" fill="#F79331"/>
<path d="M11.3343 31.9286C13.4406 32.742 15.4095 33.8302 17.1793 35.1989L17.1933 15.5893H11.3483L11.3343 31.9286Z" fill="#FDE3C1"/>
<path d="M33.0512 32.1025L33.0652 15.5893H27.2202L27.2061 35.4149C29.004 34.0798 30.9673 32.958 33.0512 32.0997V32.1025Z" fill="#FDE3C1"/>
<path d="M18.5957 37.7456L18.6209 36.3937C18.304 36.1076 17.9927 35.8384 17.6898 35.6C17.5215 35.4626 17.3504 35.3307 17.1793 35.1961C15.4095 33.8274 13.4406 32.7392 11.3343 31.9258C11.138 31.8501 10.9388 31.78 10.7397 31.7071C8.70346 30.9778 6.54664 30.4926 4.33372 30.243C4.93673 31.3621 5.6323 32.4194 6.41201 33.4011C10.6247 33.676 14.3409 34.9072 17.7346 37.165C18.0123 37.3445 18.304 37.5409 18.5957 37.7456Z" fill="#009496"/>
<path d="M33.0512 32.1025C30.9673 32.9608 29.0068 34.0826 27.2061 35.4177C26.7209 35.7767 26.2497 36.1525 25.7898 36.5424L25.8122 37.7091C29.2788 35.3476 33.4551 33.9059 37.7827 33.5385C38.5905 32.54 39.3085 31.4602 39.9311 30.3187C37.7519 30.5711 35.6399 31.1012 33.6318 31.8753C33.4382 31.951 33.2447 32.0268 33.0512 32.1053V32.1025Z" fill="#009496"/>
<path d="M22.1997 6.28815L19.1937 8.47198L22.1997 7.24736V6.28815Z" fill="#009496"/>
<path d="M25.1897 8.4764L22.1997 6.28815V7.24736L25.1897 8.4764Z" fill="#92D1BC"/>
<path d="M22.1997 40.7803C23.2824 39.6304 24.4968 38.6038 25.815 37.7063L25.7926 36.5396L25.1897 8.4764L22.2026 7.24455V40.7775L22.1997 40.7803Z" fill="#D3E8E1"/>
<path d="M18.5957 37.7456C19.9616 38.6964 21.4144 39.8688 22.1997 40.7803L22.1997 7.24736L19.1937 8.47198L18.6237 36.3937L18.5985 37.7456L18.5957 37.7456Z" fill="#004353"/>
<path d="M22.1997 40.7803C21.4172 39.8688 19.9616 38.6964 18.5957 37.7456C18.3012 37.5409 18.0123 37.3445 17.7346 37.165C14.3409 34.91 10.6247 33.6788 6.41201 33.4011C9.7356 37.5857 14.5541 40.4241 20.0093 41.0187C20.0485 41.0243 20.0906 41.0271 20.1299 41.0299C20.4272 41.0608 20.7301 41.0832 21.0302 41.1028C21.1003 41.1056 21.1676 41.1084 21.2377 41.1113C21.521 41.1253 21.8043 41.1337 22.0932 41.1337C22.1184 41.1337 22.1436 41.1337 22.1689 41.1337C28.4318 41.1281 34.0328 38.1747 37.7827 33.5329C33.455 33.9003 29.2816 35.3448 25.8122 37.7035C24.4968 38.5982 23.2795 39.6248 22.1969 40.7775L22.1997 40.7803Z" fill="#92D1BC"/>
<path d="M9.22794 28.8575C9.7384 29.0482 10.2432 29.2501 10.7397 29.4717L10.7397 22.0709L9.22793 20.8845L9.22794 28.8575Z" fill="url(#paint0_linear_130_207)"/>
<path d="M35.1575 28.9809L35.1575 20.8705L33.6458 22.0597L33.6317 22.0709V29.6428C34.131 29.4072 34.6386 29.1884 35.1575 28.9837L35.1575 28.9809Z" fill="url(#paint1_linear_130_207)"/>
<path d="M4.61138 27.5701C6.19043 27.8674 7.73863 28.2965 9.22793 28.8547V21.2407H4.61138V27.5701Z" fill="#F8C499"/>
<path d="M35.1575 28.9809C36.6216 28.4031 38.1586 27.9515 39.7741 27.6318L39.7741 21.3978H35.1575L35.1575 28.9809Z" fill="#F8C499"/>
<path d="M39.7741 27.6318C39.9255 27.6009 40.0798 27.5729 40.234 27.5449V20.8845L39.1542 21.3838L39.1262 21.3978H39.7769V27.6318L39.7741 27.6318Z" fill="url(#paint2_linear_130_207)"/>
<path d="M4.61138 21.2407L4.89745 21.2407L4.1514 20.8957V27.486C4.1514 27.486 4.16542 27.4888 4.18786 27.4944C4.3281 27.5196 4.47114 27.5421 4.61137 27.5673V21.2379L4.61138 21.2407Z" fill="url(#paint3_linear_130_207)"/>
</g>
<rect x="1.8038" y="1.66451" width="40.6709" height="40.6709" rx="20.3355" stroke="#004353" stroke-width="2.39241"/>
<path d="M49.8911 26.3637C49.8911 23.3397 50.7524 20.9473 52.4749 19.1865C54.2357 17.4257 56.609 16.5453 59.5947 16.5453C62.5804 16.5453 64.9537 17.4448 66.7145 19.2439C68.4753 21.0047 69.3557 23.378 69.3557 26.3637C69.3557 29.3494 68.4753 31.7227 66.7145 33.4835C64.9537 35.2443 62.5804 36.1247 59.5947 36.1247C56.609 36.1247 54.2357 35.2443 52.4749 33.4835C50.7524 31.7227 49.8911 29.3494 49.8911 26.3637ZM63.5565 26.4786C63.5565 23.9139 63.1929 21.8277 62.4656 20.22C61.7383 18.574 60.8196 17.7511 59.7096 17.7511C58.4846 17.7511 57.4894 18.5549 56.7238 20.1626C55.9583 21.732 55.5755 23.7991 55.5755 26.3637C55.5755 28.9667 55.92 31.0337 56.609 32.5648C57.3363 34.096 58.2933 34.8616 59.4799 34.8616C60.6665 34.8616 61.6426 34.096 62.4082 32.5648C63.1738 30.9954 63.5565 28.9667 63.5565 26.4786Z" fill="#004353"/>
<path d="M82.6632 16.5453C84.1944 16.5453 85.5724 16.9472 86.7973 17.7511C88.0605 18.5166 89.0366 19.5884 89.7256 20.9664C90.4529 22.3445 90.8165 23.8948 90.8165 25.6173C90.8165 27.6078 90.3381 29.4069 89.3811 31.0146C88.4624 32.584 87.1801 33.828 85.5341 34.7467C83.8881 35.6654 82.0508 36.1247 80.022 36.1247C78.644 36.1247 77.2659 35.9142 75.8879 35.4931C74.5099 35.0721 73.3807 34.4979 72.5003 33.7706V11.0906C72.5003 10.7844 72.4428 10.5738 72.328 10.459C72.2132 10.3442 72.0218 10.2867 71.7538 10.2867H69.9739L69.8016 9.71256C70.5289 9.02355 71.4667 8.48765 72.6151 8.10486C73.8017 7.6838 74.9692 7.47327 76.1176 7.47327C76.6152 7.47327 76.998 7.5881 77.2659 7.81777C77.5722 8.00916 77.7253 8.29625 77.7253 8.67904V18.3252C78.2995 17.7511 79.0076 17.3108 79.8497 17.0046C80.7301 16.6984 81.668 16.5453 82.6632 16.5453ZM80.3091 34.8041C83.4862 34.8041 85.0748 32.0672 85.0748 26.5934C85.0748 23.8756 84.6728 21.8086 83.869 20.3923C83.1034 18.9377 81.9551 18.2104 80.4239 18.2104C79.467 18.2104 78.5674 18.4975 77.7253 19.0717V34.23C78.5674 34.6127 79.4287 34.8041 80.3091 34.8041Z" fill="#004353"/>
<path d="M103.307 34.23C104.417 34.23 105.393 34.0386 106.235 33.6558C107.077 33.2347 107.9 32.5457 108.704 31.5887L109.393 32.1055C108.513 33.3687 107.383 34.3639 106.005 35.0912C104.666 35.7802 103.192 36.1247 101.584 36.1247C99.8234 36.1247 98.2348 35.7037 96.8185 34.8616C95.4405 34.0194 94.3495 32.8711 93.5457 31.4165C92.7418 29.9236 92.3399 28.2394 92.3399 26.3637C92.3399 23.378 93.2395 21.0047 95.0385 19.2439C96.8759 17.4448 99.3066 16.5453 102.331 16.5453C104.474 16.5453 106.216 17.062 107.556 18.0956C108.934 19.0908 109.623 20.3923 109.623 22C109.623 23.8373 108.838 25.3111 107.269 26.4211C105.737 27.4929 103.632 28.0288 100.953 28.0288C99.8808 28.0288 98.9047 27.9523 98.0243 27.7992C98.2157 29.7896 98.7898 31.3591 99.7468 32.5074C100.704 33.6558 101.89 34.23 103.307 34.23ZM101.699 17.9233C100.512 17.9233 99.5745 18.6506 98.8855 20.1052C98.2348 21.5215 97.9094 23.512 97.9094 26.0766V26.9953C98.3305 26.9953 98.8473 26.957 99.4597 26.8805C101.067 26.6891 102.292 26.1723 103.134 25.3302C104.015 24.4498 104.455 23.3014 104.455 21.8851C104.455 20.7368 104.187 19.799 103.651 19.0717C103.154 18.3061 102.503 17.9233 101.699 17.9233Z" fill="#004353"/>
<path d="M135.043 21.3684C135.043 24.1244 132.861 25.6173 128.497 25.847C129.033 26.3446 129.454 26.9379 129.761 27.6269C130.105 28.2776 130.277 28.9667 130.277 29.694C130.277 30.7275 129.952 31.7419 129.301 32.7371C128.689 33.7323 127.674 34.5553 126.258 35.2061C124.88 35.8185 123.119 36.1247 120.976 36.1247C117.799 36.1247 115.272 35.4549 113.397 34.1151C111.521 32.7754 110.583 30.8806 110.583 28.4308C110.583 26.7082 111.176 25.2154 112.363 23.9522C113.588 22.689 115.33 21.7703 117.588 21.1961C115.866 20.7751 114.507 20.0478 113.511 19.0142C112.554 17.9807 112.076 16.641 112.076 14.995C112.076 13.8466 112.459 12.7557 113.224 11.7222C113.99 10.6887 115.119 9.86567 116.612 9.25322C118.105 8.60248 119.885 8.27712 121.952 8.27712C124.248 8.27712 126.009 8.79388 127.234 9.82739C128.497 10.8226 129.129 12.0093 129.129 13.3873C129.129 14.8802 128.517 16.0094 127.292 16.7749C126.067 17.5022 124.382 17.885 122.239 17.9233C123.579 16.8898 124.248 15.4161 124.248 13.5021C124.248 12.3921 123.981 11.4542 123.445 10.6887C122.909 9.88481 122.239 9.48289 121.435 9.48289C120.325 9.48289 119.445 10.0188 118.794 11.0906C118.181 12.1241 117.875 13.349 117.875 14.7653C117.875 16.6027 118.315 17.9999 119.196 18.9568C120.114 19.9138 121.301 20.3923 122.756 20.3923V21.2535C120.612 21.7894 119.043 22.7081 118.047 24.0096C117.052 25.3111 116.555 26.8039 116.555 28.4882C116.555 30.2107 116.995 31.7227 117.875 33.0242C118.794 34.2874 120.057 34.919 121.665 34.919C123.158 34.919 124.402 34.4022 125.397 33.3687C126.43 32.2969 126.947 30.8423 126.947 29.0049C126.947 27.7035 126.679 26.6891 126.143 25.9618C124.038 25.9618 122.545 26.1723 121.665 26.5934C120.784 27.0145 120.153 27.5695 119.77 28.2585L119.368 28.0863C119.368 26.4786 119.636 25.3493 120.172 24.6986C120.708 24.0479 121.55 23.7225 122.698 23.7225C123.081 23.7225 123.693 23.7608 124.536 23.8373C125.263 23.9522 126.105 24.0096 127.062 24.0096C129.971 24.0096 131.426 22.9569 131.426 20.8516C131.426 20.2774 131.234 19.6267 130.852 18.8994C130.469 18.1338 130.067 17.5788 129.646 17.2343C131.139 17.2726 132.402 17.6554 133.435 18.3826C134.507 19.0717 135.043 20.0669 135.043 21.3684Z" fill="#009496"/>
<path d="M142.644 32.3352C142.644 33.4835 143.008 34.0577 143.735 34.0577C144.462 34.0577 145.171 33.7706 145.86 33.1964L146.319 33.7706C144.979 35.34 143.314 36.1247 141.324 36.1247C139.984 36.1247 139.008 35.8185 138.395 35.2061C137.783 34.5553 137.477 33.5409 137.477 32.1629V11.0906C137.477 10.5547 137.228 10.2867 136.73 10.2867H134.893L134.721 9.71256C135.448 9.02355 136.386 8.48765 137.534 8.10486C138.721 7.6838 139.888 7.47327 141.036 7.47327C141.534 7.47327 141.917 7.5881 142.185 7.81777C142.491 8.00916 142.644 8.29625 142.644 8.67904V32.3352Z" fill="#F79331"/>
<path d="M154.247 32.3352C154.247 33.4835 154.611 34.0577 155.338 34.0577C156.065 34.0577 156.773 33.7706 157.462 33.1964L157.922 33.7706C156.505 35.34 154.84 36.1247 152.926 36.1247C151.548 36.1247 150.553 35.7802 149.941 35.0912C149.328 34.3639 149.022 33.1964 149.022 31.5887V20.22C149.022 19.6841 148.773 19.4162 148.276 19.4162H146.496L146.323 18.7846C147.089 18.1338 148.046 17.5979 149.194 17.1769C150.343 16.7558 151.491 16.5453 152.639 16.5453C153.099 16.5453 153.481 16.6601 153.788 16.8898C154.094 17.1195 154.247 17.4257 154.247 17.8085V32.3352ZM148.448 11.0332C148.448 10.3442 148.831 9.57859 149.596 8.73646C150.362 7.89433 151.07 7.47327 151.721 7.47327C152.41 7.47327 153.137 7.89433 153.903 8.73646C154.706 9.57859 155.108 10.3442 155.108 11.0332C155.108 11.7605 154.706 12.5452 153.903 13.3873C153.137 14.1911 152.41 14.5931 151.721 14.5931C151.07 14.5931 150.362 14.1911 149.596 13.3873C148.831 12.5452 148.448 11.7605 148.448 11.0332Z" fill="#F79331"/>
<path d="M169.917 33.8855C170.759 33.8855 171.391 33.7323 171.812 33.4261C172.233 33.0816 172.539 32.5266 172.731 31.761L173.19 29.6365L174.338 30.0385V36.0673L173.879 36.5267C173.343 36.1822 172.75 35.9334 172.099 35.7802C171.487 35.6654 170.606 35.608 169.458 35.608H158.606L158.204 34.4596L168.367 18.6697H163.084C162.281 18.6697 161.649 18.842 161.19 19.1865C160.73 19.531 160.424 20.0669 160.271 20.7942L159.869 22.9187L158.663 22.5167V16.4879L159.123 16.0285C159.659 16.373 160.233 16.6218 160.845 16.7749C161.496 16.8898 162.415 16.9472 163.601 16.9472H174.166C174.664 17.4065 174.913 17.9424 174.913 18.5549L173.879 19.1291L164.405 33.8855H169.917Z" fill="#F79331"/>
<path d="M176.478 32.8519C176.478 32.2012 176.842 31.493 177.569 30.7275C178.296 29.9236 178.966 29.5217 179.579 29.5217C180.191 29.5217 180.861 29.9236 181.588 30.7275C182.354 31.493 182.737 32.2012 182.737 32.8519C182.737 33.5027 182.354 34.2108 181.588 34.9764C180.861 35.742 180.191 36.1247 179.579 36.1247C178.966 36.1247 178.296 35.742 177.569 34.9764C176.842 34.2108 176.478 33.5027 176.478 32.8519Z" fill="#009496"/>
<path d="M201.759 21.598C201.759 22.8612 201.376 23.8565 200.611 24.5838C199.845 25.3111 198.907 25.6747 197.797 25.6747C196.917 25.6747 196.113 25.445 195.386 24.9857C196.228 24.2201 196.649 23.1483 196.649 21.7703C196.649 20.6602 196.419 19.7607 195.96 19.0717C195.5 18.3444 194.831 17.9807 193.95 17.9807C192.955 17.9807 192.132 18.7654 191.481 20.3349C190.869 21.866 190.562 23.8756 190.562 26.3637C190.562 28.737 191.003 30.6509 191.883 32.1055C192.802 33.5218 194.084 34.23 195.73 34.23C196.878 34.23 197.855 34.0194 198.658 33.5984C199.5 33.1773 200.285 32.5648 201.012 31.761L201.702 32.2203C200.898 33.3687 199.845 34.3065 198.544 35.0338C197.242 35.7611 195.73 36.1247 194.008 36.1247C191.328 36.1247 189.127 35.2252 187.404 33.4261C185.682 31.627 184.821 29.3112 184.821 26.4786C184.821 23.4546 185.72 21.043 187.519 19.2439C189.318 17.4448 191.711 16.5453 194.697 16.5453C196.802 16.5453 198.505 17.0238 199.807 17.9807C201.108 18.8994 201.759 20.1052 201.759 21.598Z" fill="#009496"/>
<path d="M203.535 26.3637C203.535 23.3397 204.397 20.9473 206.119 19.1865C207.88 17.4257 210.253 16.5453 213.239 16.5453C216.225 16.5453 218.598 17.4448 220.359 19.2439C222.12 21.0047 223 23.378 223 26.3637C223 29.3494 222.12 31.7227 220.359 33.4835C218.598 35.2443 216.225 36.1247 213.239 36.1247C210.253 36.1247 207.88 35.2443 206.119 33.4835C204.397 31.7227 203.535 29.3494 203.535 26.3637ZM217.201 26.4786C217.201 23.9139 216.837 21.8277 216.11 20.22C215.382 18.574 214.464 17.7511 213.354 17.7511C212.129 17.7511 211.134 18.5549 210.368 20.1626C209.602 21.732 209.22 23.7991 209.22 26.3637C209.22 28.9667 209.564 31.0337 210.253 32.5648C210.98 34.096 211.937 34.8616 213.124 34.8616C214.311 34.8616 215.287 34.096 216.052 32.5648C216.818 30.9954 217.201 28.9667 217.201 26.4786Z" fill="#009496"/>
<defs>
<linearGradient id="paint0_linear_130_207" x1="22.1749" y1="59.2569" x2="22.1749" y2="2.22174" gradientUnits="userSpaceOnUse">
<stop offset="0.2" stop-color="#B74830"/>
<stop offset="0.7" stop-color="#DA714C"/>
</linearGradient>
<linearGradient id="paint1_linear_130_207" x1="22.1395" y1="58.4998" x2="22.1395" y2="2.32394" gradientUnits="userSpaceOnUse">
<stop offset="0.2" stop-color="#B74830"/>
<stop offset="0.7" stop-color="#DA714C"/>
</linearGradient>
<linearGradient id="paint2_linear_130_207" x1="22.091" y1="68.8276" x2="22.091" y2="1.48784" gradientUnits="userSpaceOnUse">
<stop offset="0.2" stop-color="#B74830"/>
<stop offset="0.7" stop-color="#DA714C"/>
</linearGradient>
<linearGradient id="paint3_linear_130_207" x1="4.52723" y1="37.9868" x2="4.52723" y2="12.8425" gradientUnits="userSpaceOnUse">
<stop offset="0.2" stop-color="#B74830"/>
<stop offset="0.7" stop-color="#DA714C"/>
</linearGradient>
<clipPath id="clip0_130_207">
<rect x="3" y="2.86072" width="38.2785" height="38.2785" rx="19.1393" fill="white"/>
</clipPath>
</defs>
</svg>
