<svg width="228" height="47" viewBox="0 0 228 47" fill="none" xmlns="http://www.w3.org/2000/svg">
<rect x="2" y="2.14209" width="42.2785" height="42.2785" rx="21.1393" stroke="white" stroke-width="4"/>
<g clip-path="url(#clip0_130_552)">
<rect x="4" y="4.14209" width="38.2785" height="38.2785" rx="19.1393" fill="#EEEDED"/>
<path d="M11.7397 30.7531C11.2432 30.5316 10.7384 30.3296 10.2279 30.1389C8.73864 29.5808 7.19044 29.1516 5.61139 28.8543C5.47115 28.8291 5.32811 28.8038 5.18788 28.7814C4.80083 28.7141 4.41097 28.6552 4.01831 28.6047C4.38573 29.62 4.82607 30.5961 5.33092 31.53C7.54383 31.7797 9.70066 32.2649 11.7369 32.9941V30.7531H11.7397Z" fill="#015F73"/>
<path d="M40.7741 28.9132C39.1586 29.233 37.6216 29.6845 36.1575 30.2623C35.6386 30.467 35.131 30.6858 34.6318 30.9214V33.154C36.6399 32.3799 38.7519 31.8498 40.9312 31.5973C41.4416 30.6606 41.8876 29.6789 42.2606 28.6608C41.9156 28.7113 41.5706 28.7646 41.2312 28.8263C41.077 28.8543 40.9255 28.8852 40.7713 28.9132H40.7741Z" fill="#015F73"/>
<path d="M18.1793 36.4803C18.3504 36.6122 18.5215 36.744 18.6898 36.8842C18.9927 37.1226 19.6209 37.678 19.6209 37.678L20.0699 17.7646L18.1793 16.2397V16.8735H18.1933L18.1793 36.4832V36.4803Z" fill="#F79331"/>
<path d="M11.7397 32.9943C11.9388 33.0644 12.1379 33.1373 12.3343 33.2131L12.3483 16.8737H13.1308L11.7537 16.2399L11.7397 32.9943Z" fill="#F79331"/>
<path d="M34.0512 33.3839C34.2447 33.3054 34.4382 33.2269 34.6318 33.154L34.6458 16.2397L33.2686 16.8735H34.0652L34.0512 33.3868V33.3839Z" fill="#F79331"/>
<path d="M28.2061 36.6991L28.2202 16.2369L26.3193 17.7469L26.7898 37.821C27.2497 37.4311 27.7209 37.0581 28.2061 36.6963V36.6991Z" fill="#F79331"/>
<path d="M12.3343 33.2101C14.4406 34.0234 16.4095 35.1116 18.1793 36.4803L18.1933 16.8707H12.3483L12.3343 33.2101Z" fill="#FDE3C1"/>
<path d="M34.0512 33.3839L34.0652 16.8707H28.2202L28.2061 36.6963C30.004 35.3613 31.9673 34.2394 34.0512 33.3811V33.3839Z" fill="#FDE3C1"/>
<path d="M19.5957 39.027L19.6209 37.6752C19.304 37.3891 18.9927 37.1198 18.6898 36.8814C18.5215 36.744 18.3504 36.6122 18.1793 36.4775C16.4095 35.1088 14.4406 34.0206 12.3343 33.2072C12.138 33.1315 11.9388 33.0614 11.7397 32.9885C9.70346 32.2593 7.54664 31.774 5.33372 31.5244C5.93673 32.6435 6.6323 33.7009 7.41201 34.6825C11.6247 34.9574 15.3409 36.1887 18.7346 38.4465C19.0123 38.626 19.304 38.8223 19.5957 39.027Z" fill="#009496"/>
<path d="M34.0512 33.3839C31.9673 34.2422 30.0068 35.3641 28.2061 36.6991C27.7209 37.0581 27.2497 37.4339 26.7898 37.8238L26.8122 38.9906C30.2788 36.629 34.4551 35.1874 38.7827 34.82C39.5905 33.8215 40.3085 32.7417 40.9311 31.6001C38.7519 31.8526 36.6399 32.3827 34.6318 33.1568C34.4382 33.2325 34.2447 33.3082 34.0512 33.3868V33.3839Z" fill="#009496"/>
<path d="M23.1997 7.56958L20.1937 9.75341L23.1997 8.52879V7.56958Z" fill="#009496"/>
<path d="M26.1897 9.75783L23.1997 7.56958V8.52879L26.1897 9.75783Z" fill="#92D1BC"/>
<path d="M23.1997 42.0617C24.2824 40.9118 25.4968 39.8853 26.815 38.9878L26.7926 37.821L26.1897 9.75783L23.2026 8.52598V42.0589L23.1997 42.0617Z" fill="#D3E8E1"/>
<path d="M19.5957 39.027C20.9616 39.9778 22.4144 41.1502 23.1997 42.0617L23.1997 8.52879L20.1937 9.75341L19.6237 37.6751L19.5985 39.027L19.5957 39.027Z" fill="#004353"/>
<path d="M23.1997 42.0617C22.4172 41.1502 20.9616 39.9778 19.5957 39.027C19.3012 38.8223 19.0123 38.626 18.7346 38.4465C15.3409 36.1915 11.6247 34.9602 7.41201 34.6825C10.7356 38.8672 15.5541 41.7055 21.0093 42.3001C21.0485 42.3057 21.0906 42.3085 21.1299 42.3113C21.4272 42.3422 21.7301 42.3646 22.0302 42.3843C22.1003 42.3871 22.1676 42.3899 22.2377 42.3927C22.521 42.4067 22.8043 42.4151 23.0932 42.4151C23.1184 42.4151 23.1436 42.4151 23.1689 42.4151C29.4318 42.4095 35.0328 39.4562 38.7827 34.8144C34.455 35.1818 30.2816 36.6262 26.8122 38.985C25.4968 39.8797 24.2795 40.9062 23.1969 42.0589L23.1997 42.0617Z" fill="#92D1BC"/>
<path d="M10.2279 30.1389C10.7384 30.3296 11.2432 30.5316 11.7397 30.7531L11.7397 23.3523L10.2279 22.166L10.2279 30.1389Z" fill="url(#paint0_linear_130_552)"/>
<path d="M36.1575 30.2623L36.1575 22.1519L34.6458 23.3411L34.6317 23.3523V30.9242C35.131 30.6886 35.6386 30.4699 36.1575 30.2651L36.1575 30.2623Z" fill="url(#paint1_linear_130_552)"/>
<path d="M5.61138 28.8515C7.19043 29.1488 8.73863 29.5779 10.2279 30.1361V22.5221H5.61138V28.8515Z" fill="#F8C499"/>
<path d="M36.1575 30.2623C37.6216 29.6845 39.1586 29.233 40.7741 28.9132L40.7741 22.6792H36.1575L36.1575 30.2623Z" fill="#F8C499"/>
<path d="M40.7741 28.9132C40.9255 28.8824 41.0798 28.8544 41.234 28.8263V22.166L40.1542 22.6652L40.1262 22.6792H40.7769V28.9133L40.7741 28.9132Z" fill="url(#paint2_linear_130_552)"/>
<path d="M5.61138 22.5221L5.89745 22.5221L5.1514 22.1772V28.7674C5.1514 28.7674 5.16542 28.7702 5.18786 28.7758C5.3281 28.8011 5.47114 28.8235 5.61137 28.8487V22.5193L5.61138 22.5221Z" fill="url(#paint3_linear_130_552)"/>
</g>
<rect x="3" y="3.14209" width="40.2785" height="40.2785" rx="20.1393" stroke="#004353" stroke-width="2"/>
<path d="M54.2786 25.6451C54.2786 22.6211 55.1398 20.2287 56.8624 18.4679C58.6232 16.7071 60.9964 15.8266 63.9822 15.8266C66.9679 15.8266 69.3412 16.7262 71.102 18.5253C72.8628 20.2861 73.7432 22.6594 73.7432 25.6451C73.7432 28.6308 72.8628 31.0041 71.102 32.7649C69.3412 34.5257 66.9679 35.4061 63.9822 35.4061C60.9964 35.4061 58.6232 34.5257 56.8624 32.7649C55.1398 31.0041 54.2786 28.6308 54.2786 25.6451ZM67.944 25.7599C67.944 23.1953 67.5804 21.1091 66.8531 19.5014C66.1258 17.8554 65.2071 17.0324 64.097 17.0324C62.8721 17.0324 61.8769 17.8363 61.1113 19.444C60.3457 21.0134 59.9629 23.0804 59.9629 25.6451C59.9629 28.248 60.3074 30.3151 60.9964 31.8462C61.7237 33.3774 62.6807 34.1429 63.8673 34.1429C65.054 34.1429 66.0301 33.3774 66.7956 31.8462C67.5612 30.2768 67.944 28.248 67.944 25.7599Z" fill="white"/>
<path d="M87.0507 15.8266C88.5818 15.8266 89.9598 16.2286 91.1847 17.0324C92.4479 17.798 93.424 18.8698 94.1131 20.2478C94.8403 21.6258 95.204 23.1761 95.204 24.8987C95.204 26.8891 94.7255 28.6882 93.7685 30.2959C92.8499 31.8654 91.5675 33.1094 89.9216 34.0281C88.2756 34.9468 86.4382 35.4061 84.4094 35.4061C83.0314 35.4061 81.6534 35.1956 80.2754 34.7745C78.8973 34.3535 77.7681 33.7793 76.8877 33.052V10.372C76.8877 10.0657 76.8303 9.8552 76.7155 9.74036C76.6006 9.62553 76.4092 9.56811 76.1413 9.56811H74.3613L74.1891 8.99393C74.9164 8.30492 75.8542 7.76902 77.0026 7.38623C78.1892 6.96517 79.3567 6.75464 80.505 6.75464C81.0027 6.75464 81.3854 6.86947 81.6534 7.09914C81.9596 7.29054 82.1127 7.57763 82.1127 7.96041V17.6066C82.6869 17.0324 83.3951 16.5922 84.2372 16.286C85.1176 15.9798 86.0554 15.8266 87.0507 15.8266ZM84.6965 34.0855C87.8737 34.0855 89.4622 31.3486 89.4622 25.8748C89.4622 23.157 89.0603 21.0899 88.2564 19.6736C87.4909 18.2191 86.3425 17.4918 84.8114 17.4918C83.8544 17.4918 82.9549 17.7789 82.1127 18.353V33.5113C82.9549 33.8941 83.8161 34.0855 84.6965 34.0855Z" fill="white"/>
<path d="M107.694 33.5113C108.804 33.5113 109.78 33.3199 110.622 32.9372C111.465 32.5161 112.288 31.8271 113.091 30.8701L113.78 31.3869C112.9 32.6501 111.771 33.6453 110.393 34.3726C109.053 35.0616 107.579 35.4061 105.972 35.4061C104.211 35.4061 102.622 34.9851 101.206 34.1429C99.8279 33.3008 98.737 32.1524 97.9331 30.6979C97.1293 29.205 96.7274 27.5207 96.7274 25.6451C96.7274 22.6594 97.6269 20.2861 99.426 18.5253C101.263 16.7262 103.694 15.8266 106.718 15.8266C108.862 15.8266 110.603 16.3434 111.943 17.3769C113.321 18.3722 114.01 19.6736 114.01 21.2813C114.01 23.1187 113.225 24.5924 111.656 25.7025C110.125 26.7743 108.02 27.3102 105.34 27.3102C104.268 27.3102 103.292 27.2337 102.412 27.0805C102.603 29.071 103.177 30.6404 104.134 31.7888C105.091 32.9372 106.278 33.5113 107.694 33.5113ZM106.086 17.2047C104.9 17.2047 103.962 17.932 103.273 19.3866C102.622 20.8029 102.297 22.7933 102.297 25.358V26.2767C102.718 26.2767 103.235 26.2384 103.847 26.1619C105.455 25.9705 106.68 25.4537 107.522 24.6116C108.402 23.7312 108.843 22.5828 108.843 21.1665C108.843 20.0181 108.575 19.0803 108.039 18.353C107.541 17.5875 106.89 17.2047 106.086 17.2047Z" fill="white"/>
<path d="M139.43 20.6497C139.43 23.4058 137.249 24.8987 132.885 25.1283C133.421 25.626 133.842 26.2193 134.148 26.9083C134.493 27.559 134.665 28.248 134.665 28.9753C134.665 30.0088 134.339 31.0232 133.689 32.0185C133.076 33.0137 132.062 33.8367 130.646 34.4874C129.268 35.0999 127.507 35.4061 125.363 35.4061C122.186 35.4061 119.66 34.7362 117.784 33.3965C115.908 32.0567 114.971 30.162 114.971 27.7121C114.971 25.9896 115.564 24.4967 116.75 23.2335C117.975 21.9704 119.717 21.0517 121.975 20.4775C120.253 20.0564 118.894 19.3291 117.899 18.2956C116.942 17.2621 116.463 15.9223 116.463 14.2764C116.463 13.128 116.846 12.0371 117.612 11.0036C118.377 9.97003 119.507 9.14705 120.999 8.53459C122.492 7.88385 124.272 7.55849 126.339 7.55849C128.636 7.55849 130.397 8.07525 131.622 9.10877C132.885 10.104 133.516 11.2906 133.516 12.6687C133.516 14.1615 132.904 15.2908 131.679 16.0563C130.454 16.7836 128.77 17.1664 126.626 17.2047C127.966 16.1712 128.636 14.6974 128.636 12.7835C128.636 11.6734 128.368 10.7356 127.832 9.97003C127.296 9.16619 126.626 8.76426 125.822 8.76426C124.712 8.76426 123.832 9.30016 123.181 10.372C122.569 11.4055 122.263 12.6304 122.263 14.0467C122.263 15.8841 122.703 17.2812 123.583 18.2382C124.502 19.1952 125.689 19.6736 127.143 19.6736V20.5349C124.999 21.0708 123.43 21.9895 122.435 23.291C121.44 24.5924 120.942 26.0853 120.942 27.7696C120.942 29.4921 121.382 31.0041 122.263 32.3056C123.181 33.5687 124.444 34.2003 126.052 34.2003C127.545 34.2003 128.789 33.6836 129.784 32.6501C130.818 31.5783 131.335 30.1237 131.335 28.2863C131.335 26.9848 131.067 25.9705 130.531 25.2432C128.425 25.2432 126.933 25.4537 126.052 25.8748C125.172 26.2958 124.54 26.8509 124.157 27.5399L123.755 27.3676C123.755 25.7599 124.023 24.6307 124.559 23.98C125.095 23.3292 125.937 23.0039 127.086 23.0039C127.468 23.0039 128.081 23.0422 128.923 23.1187C129.65 23.2335 130.492 23.291 131.449 23.291C134.359 23.291 135.813 22.2383 135.813 20.133C135.813 19.5588 135.622 18.9081 135.239 18.1808C134.856 17.4152 134.454 16.8602 134.033 16.5157C135.526 16.5539 136.789 16.9367 137.823 17.664C138.895 18.353 139.43 19.3483 139.43 20.6497Z" fill="white"/>
<path d="M147.032 31.6165C147.032 32.7649 147.395 33.3391 148.123 33.3391C148.85 33.3391 149.558 33.052 150.247 32.4778L150.706 33.052C149.367 34.6214 147.702 35.4061 145.711 35.4061C144.371 35.4061 143.395 35.0999 142.783 34.4874C142.17 33.8367 141.864 32.8223 141.864 31.4443V10.372C141.864 9.83606 141.615 9.56811 141.118 9.56811H139.28L139.108 8.99393C139.835 8.30492 140.773 7.76902 141.921 7.38623C143.108 6.96517 144.276 6.75464 145.424 6.75464C145.922 6.75464 146.304 6.86947 146.572 7.09914C146.879 7.29054 147.032 7.57763 147.032 7.96041V31.6165Z" fill="white"/>
<path d="M158.634 31.6165C158.634 32.7649 158.998 33.3391 159.725 33.3391C160.453 33.3391 161.161 33.052 161.85 32.4778L162.309 33.052C160.893 34.6214 159.228 35.4061 157.314 35.4061C155.936 35.4061 154.941 35.0616 154.328 34.3726C153.716 33.6453 153.409 32.4778 153.409 30.8701V19.5014C153.409 18.9655 153.161 18.6975 152.663 18.6975H150.883L150.711 18.0659C151.476 17.4152 152.433 16.8793 153.582 16.4582C154.73 16.0372 155.878 15.8266 157.027 15.8266C157.486 15.8266 157.869 15.9415 158.175 16.1712C158.481 16.4008 158.634 16.7071 158.634 17.0898V31.6165ZM152.835 10.3145C152.835 9.62553 153.218 8.85996 153.984 8.01783C154.749 7.1757 155.457 6.75464 156.108 6.75464C156.797 6.75464 157.524 7.1757 158.29 8.01783C159.094 8.85996 159.496 9.62553 159.496 10.3145C159.496 11.0418 159.094 11.8265 158.29 12.6687C157.524 13.4725 156.797 13.8744 156.108 13.8744C155.457 13.8744 154.749 13.4725 153.984 12.6687C153.218 11.8265 152.835 11.0418 152.835 10.3145Z" fill="white"/>
<path d="M174.305 33.1668C175.147 33.1668 175.778 33.0137 176.199 32.7075C176.62 32.363 176.927 31.8079 177.118 31.0424L177.577 28.9179L178.726 29.3198V35.3487L178.266 35.808C177.731 35.4635 177.137 35.2147 176.486 35.0616C175.874 34.9468 174.994 34.8894 173.845 34.8894H162.993L162.591 33.741L172.754 17.9511H167.472C166.668 17.9511 166.036 18.1234 165.577 18.4679C165.118 18.8124 164.812 19.3483 164.658 20.0756L164.257 22.2L163.051 21.7981V15.7692L163.51 15.3099C164.046 15.6544 164.62 15.9032 165.233 16.0563C165.883 16.1712 166.802 16.2286 167.989 16.2286H178.554C179.051 16.6879 179.3 17.2238 179.3 17.8363L178.266 18.4104L168.793 33.1668H174.305Z" fill="white"/>
<path d="M180.866 32.1333C180.866 31.4826 181.229 30.7744 181.956 30.0088C182.684 29.205 183.354 28.8031 183.966 28.8031C184.579 28.8031 185.248 29.205 185.976 30.0088C186.741 30.7744 187.124 31.4826 187.124 32.1333C187.124 32.784 186.741 33.4922 185.976 34.2578C185.248 35.0233 184.579 35.4061 183.966 35.4061C183.354 35.4061 182.684 35.0233 181.956 34.2578C181.229 33.4922 180.866 32.784 180.866 32.1333Z" fill="white"/>
<path d="M206.146 20.8794C206.146 22.1426 205.764 23.1378 204.998 23.8651C204.232 24.5924 203.295 24.9561 202.185 24.9561C201.304 24.9561 200.5 24.7264 199.773 24.2671C200.615 23.5015 201.036 22.4297 201.036 21.0517C201.036 19.9416 200.807 19.042 200.347 18.353C199.888 17.6257 199.218 17.2621 198.338 17.2621C197.342 17.2621 196.519 18.0468 195.869 19.6162C195.256 21.1474 194.95 23.157 194.95 25.6451C194.95 28.0184 195.39 29.9323 196.271 31.3869C197.189 32.8032 198.472 33.5113 200.117 33.5113C201.266 33.5113 202.242 33.3008 203.046 32.8797C203.888 32.4587 204.673 31.8462 205.4 31.0424L206.089 31.5017C205.285 32.6501 204.232 33.5879 202.931 34.3152C201.629 35.0425 200.118 35.4061 198.395 35.4061C195.715 35.4061 193.514 34.5066 191.792 32.7075C190.069 30.9084 189.208 28.5925 189.208 25.7599C189.208 22.7359 190.108 20.3244 191.907 18.5253C193.706 16.7262 196.098 15.8266 199.084 15.8266C201.189 15.8266 202.893 16.3051 204.194 17.2621C205.496 18.1808 206.146 19.3866 206.146 20.8794Z" fill="white"/>
<path d="M207.923 25.6451C207.923 22.6211 208.784 20.2287 210.507 18.4679C212.267 16.7071 214.641 15.8266 217.626 15.8266C220.612 15.8266 222.985 16.7262 224.746 18.5253C226.507 20.2861 227.387 22.6594 227.387 25.6451C227.387 28.6308 226.507 31.0041 224.746 32.7649C222.985 34.5257 220.612 35.4061 217.626 35.4061C214.641 35.4061 212.267 34.5257 210.507 32.7649C208.784 31.0041 207.923 28.6308 207.923 25.6451ZM221.588 25.7599C221.588 23.1953 221.225 21.1091 220.497 19.5014C219.77 17.8554 218.851 17.0324 217.741 17.0324C216.516 17.0324 215.521 17.8363 214.755 19.444C213.99 21.0134 213.607 23.0804 213.607 25.6451C213.607 28.248 213.952 30.3151 214.641 31.8462C215.368 33.3774 216.325 34.1429 217.512 34.1429C218.698 34.1429 219.674 33.3774 220.44 31.8462C221.205 30.2768 221.588 28.248 221.588 25.7599Z" fill="white"/>
<defs>
<linearGradient id="paint0_linear_130_552" x1="23.1749" y1="60.5383" x2="23.1749" y2="3.50317" gradientUnits="userSpaceOnUse">
<stop offset="0.2" stop-color="#B74830"/>
<stop offset="0.7" stop-color="#DA714C"/>
</linearGradient>
<linearGradient id="paint1_linear_130_552" x1="23.1395" y1="59.7812" x2="23.1395" y2="3.60538" gradientUnits="userSpaceOnUse">
<stop offset="0.2" stop-color="#B74830"/>
<stop offset="0.7" stop-color="#DA714C"/>
</linearGradient>
<linearGradient id="paint2_linear_130_552" x1="23.091" y1="70.109" x2="23.091" y2="2.76927" gradientUnits="userSpaceOnUse">
<stop offset="0.2" stop-color="#B74830"/>
<stop offset="0.7" stop-color="#DA714C"/>
</linearGradient>
<linearGradient id="paint3_linear_130_552" x1="5.52723" y1="39.2682" x2="5.52723" y2="14.124" gradientUnits="userSpaceOnUse">
<stop offset="0.2" stop-color="#B74830"/>
<stop offset="0.7" stop-color="#DA714C"/>
</linearGradient>
<clipPath id="clip0_130_552">
<rect x="4" y="4.14209" width="38.2785" height="38.2785" rx="19.1393" fill="white"/>
</clipPath>
</defs>
</svg>
